<?xml version="1.0" standalone="no"?>
<!DOCTYPE svg PUBLIC "-//W3C//DTD SVG 20010904//EN"
 "http://www.w3.org/TR/2001/REC-SVG-20010904/DTD/svg10.dtd">
<svg version="1.0" xmlns="http://www.w3.org/2000/svg"
 width="582.000000pt" height="142.000000pt" viewBox="0 0 582.000000 142.000000"
 preserveAspectRatio="xMidYMid meet">
<metadata>
Created by potrace 1.15, written by Peter Selinger 2001-2017
</metadata>
<g transform="translate(0.000000,142.000000) scale(0.100000,-0.100000)"
fill="#000000" stroke="none">
<path d="M376 997 c-14 -19 -51 -87 -83 -153 -64 -135 -76 -199 -49 -253 23
-44 46 -36 70 25 12 28 26 57 32 65 6 8 16 33 23 57 13 46 25 53 41 22 6 -11
24 -27 41 -36 41 -21 107 -5 179 42 58 38 74 42 66 17 -40 -128 -20 -227 39
-189 31 21 59 108 75 244 l12 102 -26 35 c-15 19 -35 35 -46 35 -10 0 -45 -27
-77 -61 -60 -63 -125 -104 -149 -95 -9 3 -14 20 -14 43 0 42 -32 103 -54 103
-8 0 -16 7 -20 15 -9 25 -33 17 -60 -18z"/>
<path d="M2996 997 c-14 -19 -51 -87 -83 -153 -64 -135 -76 -199 -49 -253 23
-44 46 -36 70 25 12 28 26 57 32 65 6 8 16 33 23 57 13 46 25 53 41 22 6 -11
24 -27 41 -36 41 -21 107 -5 179 42 58 38 74 42 66 17 -40 -128 -20 -227 39
-189 31 21 59 108 75 244 l12 102 -26 35 c-15 19 -35 35 -46 35 -10 0 -45 -27
-77 -61 -60 -63 -125 -104 -149 -95 -9 3 -14 20 -14 43 0 42 -32 103 -54 103
-8 0 -16 7 -20 15 -9 25 -33 17 -60 -18z"/>
<path d="M1336 898 c-25 -29 -54 -53 -64 -53 -24 0 -68 -208 -53 -248 14 -36
48 -36 63 1 7 15 13 29 14 31 2 2 15 -6 31 -16 35 -25 136 -63 167 -63 31 0
50 24 42 54 -5 19 -15 26 -48 31 -55 9 -131 42 -124 53 3 5 26 15 50 22 86 24
110 70 75 144 -20 44 -73 96 -97 96 -6 0 -31 -24 -56 -52z"/>
<path d="M2535 943 c-53 -13 -172 -57 -186 -69 -22 -20 -27 -18 -34 15 -10 47
-43 65 -52 28 -29 -135 -63 -187 -146 -222 -34 -14 -38 -14 -44 0 -3 9 -3 42
0 73 5 46 2 63 -15 94 -23 40 -26 42 -44 30 -24 -16 -44 -192 -26 -230 5 -9
15 -30 23 -46 19 -40 60 -52 113 -35 52 17 145 107 179 174 14 28 26 45 27 39
0 -14 44 -34 73 -34 27 0 87 -17 106 -29 13 -8 13 -12 0 -27 -18 -22 -107 -64
-136 -64 -18 0 -23 -6 -23 -27 0 -46 13 -57 56 -48 85 16 168 82 166 133 -1
40 -39 100 -76 119 l-31 16 30 13 c17 7 63 13 103 14 77 0 81 3 57 49 -20 39
-55 49 -120 34z"/>
<path d="M3897 939 c-27 -16 -44 -68 -67 -214 -16 -101 14 -179 59 -155 18 9
21 20 21 79 0 40 8 95 19 130 19 60 18 90 -5 148 -7 17 -13 20 -27 12z"/>
<path d="M4474 932 c-11 -9 -34 -34 -49 -55 -17 -22 -34 -36 -42 -33 -17 7
-26 -16 -48 -129 -12 -68 -14 -97 -6 -117 14 -37 47 -37 63 0 7 15 13 29 14
31 2 2 15 -6 31 -16 35 -25 136 -63 167 -63 31 0 50 24 42 54 -4 18 -15 25
-48 30 -55 9 -134 44 -122 55 5 4 30 16 56 25 59 22 90 58 81 95 -11 47 -42
99 -72 120 -35 25 -40 25 -67 3z"/>
<path d="M5106 898 c-25 -29 -54 -53 -64 -53 -24 0 -68 -208 -53 -248 14 -36
48 -36 63 1 7 15 13 29 14 31 2 2 15 -6 31 -16 35 -25 136 -63 167 -63 31 0
50 24 42 54 -5 19 -15 26 -48 31 -55 9 -131 42 -124 53 3 5 26 15 50 22 86 24
110 70 75 144 -20 44 -73 96 -97 96 -6 0 -31 -24 -56 -52z"/>
<path d="M1013 917 c-10 -13 -31 -30 -48 -38 -24 -11 -40 -38 -87 -139 -51
-111 -56 -127 -44 -145 16 -23 55 -27 66 -5 5 8 16 34 26 58 17 41 17 42 32
21 13 -19 21 -21 68 -15 56 6 70 -4 36 -25 -16 -10 -17 -16 -8 -35 15 -32 34
-38 62 -19 31 20 47 52 40 78 -4 15 3 30 20 48 l25 26 -26 17 c-14 9 -25 14
-25 10 0 -4 -6 -1 -14 5 -7 6 -19 45 -25 87 -11 65 -16 76 -37 85 -36 13 -40
12 -61 -14z"/>
<path d="M1631 891 c-11 -27 -35 -91 -52 -142 -28 -84 -30 -96 -19 -135 21
-74 38 -69 121 37 l27 34 28 -26 c81 -74 183 -87 215 -28 16 31 -1 42 -77 50
-47 5 -72 13 -87 27 -26 26 -19 36 74 97 76 50 86 73 44 101 -31 20 -32 19
-127 -49 -58 -42 -78 -52 -78 -39 0 9 7 26 15 36 20 26 19 49 -3 69 -34 31
-58 21 -81 -32z"/>
<path d="M3651 929 c-24 -5 -68 -15 -98 -24 -45 -13 -53 -19 -53 -40 0 -13 5
-35 11 -48 9 -20 6 -34 -20 -85 -24 -47 -29 -69 -24 -94 12 -69 49 -83 170
-68 82 11 123 30 123 58 0 34 -32 42 -119 30 -44 -7 -83 -9 -87 -5 -4 4 -2 18
4 32 10 21 18 25 58 25 44 0 108 22 120 41 12 20 -40 48 -88 49 -34 0 -48 4
-48 14 0 9 28 20 82 32 46 10 91 27 101 37 18 18 18 20 1 38 -19 21 -57 23
-133 8z"/>
<path d="M4181 929 c-24 -5 -68 -15 -98 -24 -45 -13 -53 -19 -53 -40 0 -13 5
-35 11 -48 9 -20 6 -34 -20 -85 -24 -47 -29 -69 -24 -94 12 -69 49 -83 170
-68 82 11 123 30 123 58 0 34 -32 42 -119 30 -44 -7 -83 -9 -87 -5 -4 4 -2 18
4 32 10 21 18 25 58 25 44 0 108 22 120 41 12 20 -40 48 -88 49 -34 0 -48 4
-48 14 0 9 28 20 82 32 46 10 91 27 101 37 18 18 18 20 1 38 -19 21 -57 23
-133 8z"/>
<path d="M4870 933 c-72 -11 -161 -37 -171 -49 -9 -11 -9 -24 0 -54 11 -37 9
-45 -14 -93 -21 -40 -26 -62 -22 -96 7 -65 24 -76 112 -74 89 2 146 16 169 42
15 17 15 20 -1 40 -18 22 -20 22 -105 10 -48 -7 -90 -10 -93 -7 -3 3 0 17 6
32 11 23 18 26 63 26 46 0 116 28 116 46 0 20 -50 43 -92 44 -76 0 -61 23 30
44 112 26 145 51 105 82 -17 13 -52 15 -103 7z"/>
</g>
</svg>
