<?xml version="1.0" standalone="no"?>
<!DOCTYPE svg PUBLIC "-//W3C//DTD SVG 20010904//EN"
 "http://www.w3.org/TR/2001/REC-SVG-20010904/DTD/svg10.dtd">
<svg version="1.0" xmlns="http://www.w3.org/2000/svg"
 width="447.000000pt" height="66.000000pt" viewBox="0 0 447.000000 66.000000"
 preserveAspectRatio="xMidYMid meet">
<metadata>
Created by potrace 1.15, written by Peter Selinger 2001-2017
</metadata>
<g transform="translate(0.000000,66.000000) scale(0.100000,-0.100000)"
fill="#000000" stroke="none">
<path d="M130 505 c-38 -55 -120 -241 -120 -273 0 -35 28 -94 42 -90 12 4 61
96 88 166 l13 33 26 -32 c25 -30 30 -32 79 -27 38 4 67 15 108 43 l57 37 -9
-43 c-12 -63 -11 -136 2 -149 18 -18 52 5 69 47 15 35 29 108 40 209 5 47 3
53 -25 82 -17 18 -32 32 -35 32 -3 0 -31 -26 -63 -58 -92 -92 -154 -111 -146
-45 1 15 -2 36 -8 47 -13 25 -59 65 -75 66 -7 0 -26 -20 -43 -45z"/>
<path d="M2438 533 c-25 -30 -65 -103 -103 -193 -29 -68 -36 -94 -32 -129 8
-74 53 -92 73 -28 3 12 12 36 19 52 8 17 21 47 29 68 l16 39 27 -32 c25 -30
30 -32 77 -28 37 3 67 15 110 42 l59 37 -7 -28 c-26 -116 -13 -188 31 -165 36
20 52 76 78 273 4 30 0 42 -25 68 -35 36 -56 40 -65 11 -7 -21 -87 -92 -130
-114 -40 -21 -56 -10 -54 33 3 43 -14 77 -41 86 -11 3 -20 11 -20 16 0 15 -26
10 -42 -8z"/>
<path d="M976 435 c-23 -25 -47 -45 -53 -45 -24 0 -61 -186 -44 -219 16 -28
39 -26 53 4 6 14 14 24 17 22 55 -30 127 -58 157 -60 37 -2 39 0 42 30 3 30 2
31 -50 42 -29 7 -64 19 -77 28 l-25 16 53 19 c69 26 89 56 72 106 -15 42 -68
102 -90 102 -8 0 -33 -20 -55 -45z"/>
<path d="M1252 452 c-31 -45 -76 -184 -76 -234 0 -44 16 -78 35 -78 5 0 25 22
45 50 37 52 53 60 73 36 18 -22 97 -56 129 -56 16 0 37 9 48 21 29 32 8 53
-59 59 -57 5 -96 28 -83 49 4 6 34 29 67 52 71 48 81 65 49 89 -22 17 -25 17
-59 -3 -20 -12 -55 -36 -79 -55 -23 -19 -45 -33 -47 -30 -3 2 3 20 13 39 21
42 18 63 -13 77 -21 10 -27 8 -43 -16z"/>
<path d="M1792 459 c-5 -13 -12 -40 -16 -60 -12 -67 -69 -130 -129 -145 l-28
-6 2 68 c2 53 -1 76 -15 97 -11 15 -24 26 -30 24 -12 -4 -34 -93 -35 -149 -1
-44 31 -123 54 -132 65 -24 171 48 226 154 18 34 24 39 37 28 8 -7 42 -18 75
-25 33 -7 65 -17 71 -23 16 -16 -25 -50 -85 -70 -47 -15 -54 -20 -51 -41 6
-40 18 -44 76 -26 90 29 148 118 101 157 -8 7 -15 18 -15 25 0 8 -13 19 -30
27 -16 7 -30 16 -30 19 0 11 43 19 107 19 34 0 65 5 68 10 3 6 -3 24 -15 40
-16 23 -29 30 -55 30 -41 0 -159 -35 -203 -61 l-33 -19 -5 30 c-9 43 -31 59
-42 29z"/>
<path d="M3201 454 c-11 -15 -21 -36 -21 -48 0 -11 -7 -43 -15 -70 -28 -94
-13 -186 31 -186 13 0 24 3 25 8 0 4 2 39 3 77 2 39 11 89 19 112 12 32 13 50
5 80 -14 53 -22 58 -47 27z"/>
<path d="M3712 460 c-12 -12 -29 -32 -38 -45 -9 -14 -24 -25 -34 -25 -15 0
-21 -13 -30 -57 -6 -32 -16 -74 -21 -95 -12 -46 3 -88 31 -88 13 0 22 9 26 25
7 28 25 32 44 10 7 -8 43 -24 80 -37 58 -18 71 -19 85 -8 32 26 14 54 -45 71
-102 29 -113 40 -52 59 45 15 82 47 82 72 0 32 -29 90 -58 114 -33 29 -42 30
-70 4z"/>
<path d="M4292 460 c-12 -12 -29 -32 -38 -45 -9 -14 -24 -25 -34 -25 -15 0
-21 -13 -30 -57 -6 -32 -16 -74 -21 -95 -12 -46 3 -88 31 -88 13 0 22 9 26 25
7 28 25 32 44 10 7 -8 43 -24 80 -37 58 -18 71 -19 85 -8 32 26 14 54 -45 71
-102 29 -113 40 -52 59 45 15 82 47 82 72 0 32 -29 90 -58 114 -33 29 -42 30
-70 4z"/>
<path d="M695 450 c-10 -12 -30 -26 -43 -33 -37 -18 -127 -218 -112 -247 16
-29 48 -25 61 8 22 53 32 72 41 72 4 0 8 -7 8 -16 0 -14 8 -16 50 -11 38 5 50
3 50 -7 0 -8 -7 -16 -15 -20 -13 -5 -13 -9 -3 -26 27 -42 88 -11 88 45 0 16
10 39 21 51 l22 23 -29 13 c-38 17 -41 21 -53 92 -6 33 -16 63 -23 68 -22 13
-44 9 -63 -12z"/>
<path d="M2957 454 c-92 -22 -96 -26 -84 -77 8 -37 6 -49 -12 -85 -39 -76 -22
-141 37 -143 94 -3 172 11 193 37 10 12 9 18 -7 33 -17 17 -26 17 -91 8 -40
-6 -76 -8 -80 -4 -3 4 0 18 7 32 12 22 19 25 47 20 37 -6 103 17 103 36 0 21
-34 38 -78 39 -50 0 -54 20 -6 32 16 4 50 12 76 18 59 14 80 36 53 56 -23 17
-82 17 -158 -2z"/>
<path d="M3475 465 c-5 -1 -36 -8 -68 -16 -72 -16 -85 -29 -68 -74 11 -30 9
-39 -14 -84 -20 -38 -25 -57 -20 -85 10 -50 25 -58 102 -57 95 1 153 20 153
50 0 31 -30 38 -107 27 -40 -5 -76 -7 -79 -3 -4 4 0 16 8 29 11 17 25 22 61
23 25 1 57 10 72 19 26 17 26 18 9 37 -12 13 -30 19 -61 19 -66 0 -50 21 32
42 80 21 105 39 85 62 -11 14 -74 21 -105 11z"/>
<path d="M4035 463 c-11 -2 -44 -11 -72 -19 -47 -13 -53 -17 -53 -42 0 -15 4
-33 9 -41 7 -10 2 -30 -15 -63 -29 -56 -31 -98 -6 -128 16 -20 27 -22 90 -21
111 2 174 35 136 71 -17 15 -27 16 -91 7 -40 -6 -76 -8 -79 -4 -4 4 0 17 8 29
12 18 25 23 60 23 26 1 57 9 73 19 l28 19 -24 18 c-15 11 -41 19 -67 19 -66 0
-47 21 38 41 84 20 111 39 90 63 -12 16 -77 20 -125 9z"/>
</g>
</svg>
